<svg width="1920" height="240" viewBox="0 0 1920 240" xmlns="http://www.w3.org/2000/svg"><rect width="1920" height="240" fill="#ffffff"/><path d="M1920,240C1600.5,265,307.8333333333333,254.5,0,240C-307.8333333333333,225.5,47.83333333333333,175.5,73,153C98.16666666666667,130.5,125.33333333333333,107.83333333333333,151,105C176.66666666666666,102.16666666666667,201.16666666666666,144.83333333333334,227,136C252.83333333333334,127.16666666666667,280.5,36.666666666666664,306,52C331.5,67.33333333333333,354.5,222.83333333333334,380,228C405.5,233.16666666666666,433.3333333333333,103.33333333333333,459,83C484.6666666666667,62.66666666666667,508.5,94,534,106C559.5,118,586.1666666666666,151.5,612,155C637.8333333333334,158.5,663.1666666666666,115.66666666666667,689,127C714.8333333333334,138.33333333333334,741.6666666666666,228.16666666666666,767,223C792.3333333333334,217.83333333333334,816,96.5,841,96C866,95.5,891,222.33333333333334,917,220C943,217.66666666666666,971.3333333333334,98.16666666666667,997,82C1022.6666666666666,65.83333333333333,1045.3333333333333,118.83333333333333,1071,123C1096.6666666666667,127.16666666666667,1125.3333333333333,100,1151,107C1176.6666666666667,114,1199.6666666666667,144.5,1225,165C1250.3333333333333,185.5,1277,223.16666666666666,1303,230C1329,236.83333333333334,1355.3333333333333,213.33333333333334,1381,206C1406.6666666666667,198.66666666666666,1431.6666666666667,213,1457,186C1482.3333333333333,159,1507.6666666666667,40.833333333333336,1533,44C1558.3333333333333,47.166666666666664,1583.6666666666667,176.66666666666666,1609,205C1634.3333333333333,233.33333333333334,1659,228.66666666666666,1685,214C1711,199.33333333333334,1739,145,1765,117C1791,89,1815.6666666666667,50.5,1841,46C1866.3333333333333,41.5,1903.8333333333333,57.666666666666664,1917,90C1930.1666666666667,122.33333333333334,2239.5,215,1920,240C1600.5,265,307.8333333333333,254.5,0,240" fill="#e0a34d"/></svg>