<svg width="1920" height="240" viewBox="0 0 1920 240" xmlns="http://www.w3.org/2000/svg"><rect width="1920" height="240" fill="#ffffff"/><path d="M1920,240C1600.6666666666667,248.33333333333334,307.5,240.66666666666666,0,240C-307.5,239.33333333333334,50,255.66666666666666,75,236C100,216.33333333333334,124.66666666666667,154.33333333333334,150,122C175.33333333333334,89.66666666666666,201.5,50.333333333333336,227,42C252.5,33.666666666666664,277.3333333333333,44.5,303,72C328.6666666666667,99.5,355.3333333333333,211.16666666666666,381,207C406.6666666666667,202.83333333333334,431.3333333333333,59.5,457,47C482.6666666666667,34.5,508.8333333333333,103.33333333333333,535,132C561.1666666666666,160.66666666666666,588.3333333333334,207.83333333333334,614,219C639.6666666666666,230.16666666666666,663.8333333333334,208.66666666666666,689,199C714.1666666666666,189.33333333333334,739.1666666666666,183.16666666666666,765,161C790.8333333333334,138.83333333333334,818.1666666666666,76.5,844,66C869.8333333333334,55.5,894.6666666666666,102.33333333333333,920,98C945.3333333333334,93.66666666666667,970.5,24.666666666666664,996,40C1021.5,55.333333333333336,1047.1666666666667,158,1073,190C1098.8333333333333,222,1125.1666666666667,253.5,1151,232C1176.8333333333333,210.5,1202.8333333333333,71.33333333333333,1228,61C1253.1666666666667,50.666666666666664,1276.8333333333333,147.83333333333334,1302,170C1327.1666666666667,192.16666666666666,1352.8333333333333,210.83333333333334,1379,194C1405.1666666666667,177.16666666666666,1433.5,87.5,1459,69C1484.5,50.5,1506.6666666666667,80.5,1532,83C1557.3333333333333,85.5,1585.1666666666667,66.33333333333333,1611,84C1636.8333333333333,101.66666666666667,1661.6666666666667,169.83333333333334,1687,189C1712.3333333333333,208.16666666666666,1737.1666666666667,195,1763,199C1788.8333333333333,203,1816.5,214.5,1842,213C1867.5,211.5,1903,185.5,1916,190C1929,194.5,2239.3333333333335,231.66666666666666,1920,240C1600.6666666666667,248.33333333333334,307.5,240.66666666666666,0,240" fill="#d1c7ca"/></svg>